<svg width="278" height="280" viewBox="0 0 278 280" fill="none" xmlns="http://www.w3.org/2000/svg">
<path fill-rule="evenodd" clip-rule="evenodd" d="M249.906 279.471H27.6964C12.6474 279.471 0.447235 267.271 0.447235 252.222V27.7837C0.447235 12.7347 12.6474 0.534485 27.6964 0.534485H249.906C264.955 0.534485 277.155 12.7347 277.155 27.7837V252.222C277.155 267.271 264.955 279.471 249.906 279.471ZM249.906 268.472C258.88 268.472 266.156 261.196 266.156 252.222V27.7837C266.156 18.81 258.88 11.5339 249.906 11.5339H27.6964C18.7227 11.5339 11.4466 18.81 11.4466 27.7837V252.222C11.4466 261.196 18.7227 268.472 27.6964 268.472H249.906ZM140.061 150.587C129.089 150.587 119.972 149.043 112.711 145.963C105.447 142.884 100.016 138.858 96.4096 133.895C92.8055 128.933 90.8971 123.682 90.69 118.142C90.69 117.204 91.0034 116.419 91.6304 115.792C92.2574 115.167 93.0402 114.852 93.9824 114.852H118.902C120.365 114.852 121.512 115.088 122.35 115.557C123.186 116.027 124.073 116.683 125.014 117.515C125.954 118.668 127.052 119.737 128.304 120.729C129.56 121.724 131.179 122.507 133.164 123.081C135.148 123.655 137.447 123.943 140.061 123.943C144.866 123.943 148.576 123.292 151.188 121.985C153.799 120.679 155.106 118.876 155.106 116.577C155.106 114.8 154.402 113.337 152.991 112.188C151.581 111.038 149.201 109.992 145.859 109.053C142.514 108.113 137.969 107.121 132.224 106.074C124.176 104.717 117.228 102.705 111.378 100.041C105.526 97.3754 101.059 93.7731 97.9789 89.2266C94.8954 84.6802 93.3536 79.065 93.3536 72.3774C93.3536 65.5853 95.2584 59.5778 99.0752 54.3531C102.888 49.1302 108.217 45.0549 115.061 42.1273C121.904 39.2051 129.873 37.7403 138.963 37.7403C146.486 37.7403 153.146 38.7339 158.947 40.7175C164.745 42.7029 169.629 45.2896 173.602 48.4757C177.571 51.6637 180.601 55.0845 182.693 58.74C184.781 62.401 185.877 65.9006 185.983 69.2426C185.983 70.1849 185.642 70.9933 184.964 71.6716C184.284 72.3517 183.527 72.6909 182.693 72.6909H156.516C155.264 72.6909 154.217 72.4819 153.383 72.0639C152.545 71.6459 151.711 70.9658 150.875 70.0272C150.351 68.5643 149.045 67.259 146.957 66.1096C144.866 64.9583 142.2 64.3845 138.963 64.3845C135.41 64.3845 132.693 64.9858 130.814 66.1884C128.931 67.3892 127.991 69.1399 127.991 71.4369C127.991 73.0044 128.565 74.3628 129.716 75.5122C130.865 76.6635 132.902 77.6828 135.828 78.5682C138.752 79.4573 142.827 80.4235 148.054 81.4684C157.979 82.9332 165.999 85.0231 172.111 87.7362C178.225 90.4568 182.693 94.0059 185.512 98.3965C188.333 102.783 189.745 108.268 189.745 114.852C189.745 122.273 187.602 128.645 183.318 133.974C179.032 139.303 173.156 143.404 165.686 146.277C158.213 149.15 149.672 150.587 140.061 150.587ZM203.767 150.587C202.585 150.587 201.564 150.158 200.704 149.298C199.844 148.438 199.415 147.417 199.415 146.235V42.0924C199.415 40.91 199.844 39.8889 200.704 39.0291C201.564 38.1693 202.585 37.7403 203.767 37.7403H236.654C237.836 37.7403 238.857 38.1693 239.717 39.0291C240.577 39.8889 241.006 40.91 241.006 42.0924V146.235C241.006 147.417 240.577 148.438 239.717 149.298C238.857 150.158 237.836 150.587 236.654 150.587H203.767ZM136.532 192.237L123.912 239.116C123.719 239.675 123.366 240.253 122.852 240.847C122.337 241.441 121.439 241.738 120.154 241.738H102.329C101.752 241.738 101.255 241.51 100.837 241.057C100.419 240.603 100.21 240.06 100.21 239.431C100.21 239.151 100.243 238.907 100.307 238.696L121.791 171.785C121.985 171.015 122.434 170.247 123.14 169.477C123.848 168.709 124.843 168.324 126.126 168.324H147.034C148.319 168.324 149.315 168.709 150.021 169.477C150.727 170.247 151.177 171.015 151.37 171.785L172.855 238.696C172.92 238.907 172.951 239.151 172.951 239.431C172.951 240.06 172.742 240.603 172.324 241.057C171.908 241.51 171.409 241.738 170.832 241.738H153.007C151.788 241.738 150.904 241.441 150.358 240.847C149.812 240.253 149.443 239.675 149.251 239.116L146.937 232.194H134.574C134.011 232.194 133.481 231.937 133.133 231.495C132.786 231.054 132.66 230.478 132.792 229.932L136.838 213.147C137.036 212.323 137.773 211.744 138.62 211.744H142.024L136.532 192.237ZM41.8728 241.738C41.167 241.738 40.5565 241.459 40.0432 240.9C39.5281 240.341 39.2714 239.675 39.2714 238.907V171.156C39.2714 170.386 39.5281 169.723 40.0432 169.164C40.5565 168.604 41.167 168.324 41.8728 168.324H61.1419C61.8477 168.324 62.4582 168.604 62.9733 169.164C63.4866 169.723 63.7433 170.386 63.7433 171.156V220.239H90.4315C91.1373 220.239 91.7477 220.518 92.261 221.077C92.7762 221.636 93.0328 222.302 93.0328 223.07V238.907C93.0328 239.675 92.7762 240.341 92.261 240.9C91.7477 241.459 91.1373 241.738 90.4315 241.738H41.8728ZM180.887 241.738C180.181 241.738 179.571 241.459 179.057 240.9C178.542 240.341 178.285 239.675 178.285 238.907V171.156C178.285 170.386 178.542 169.723 179.057 169.164C179.571 168.604 180.181 168.324 180.887 168.324H212.873C219.04 168.324 224.081 169.145 227.999 170.788C231.919 172.432 234.824 174.88 236.72 178.13C238.614 181.382 239.561 185.454 239.561 190.348C239.561 192.585 239.129 194.596 238.262 196.378C237.394 198.162 236.366 199.648 235.178 200.836C233.99 202.024 232.881 202.899 231.854 203.458C234.294 204.576 236.43 206.518 238.262 209.278C240.091 212.041 241.006 215.169 241.006 218.665C241.006 223.909 239.946 228.227 237.827 231.618C235.708 235.01 232.641 237.543 228.626 239.221C224.611 240.9 219.682 241.738 213.837 241.738H180.887ZM202.372 195.907H210.466C211.878 195.907 212.89 195.401 213.5 194.387C214.111 193.371 214.415 192.306 214.415 191.188C214.415 190.068 214.111 188.985 213.5 187.936C212.89 186.887 211.878 186.363 210.466 186.363H202.372V195.907ZM202.372 223.699H211.333C212.937 223.699 214.078 223.123 214.752 221.97C215.427 220.815 215.764 219.678 215.764 218.56C215.764 217.302 215.396 216.131 214.657 215.048C213.918 213.964 212.809 213.422 211.333 213.422H202.372V223.699ZM43.2697 150.587C42.1844 150.587 41.2458 150.158 40.4557 149.298C39.6674 148.438 39.2714 147.417 39.2714 146.235V42.0924C39.2714 40.91 39.6674 39.8889 40.4557 39.0291C41.2458 38.1693 42.1844 37.7403 43.2697 37.7403H73.4814C74.5667 37.7403 75.5053 38.1693 76.2954 39.0291C77.0855 39.8889 77.4797 40.91 77.4797 42.0924V146.235C77.4797 147.417 77.0855 148.438 76.2954 149.298C75.5053 150.158 74.5667 150.587 73.4814 150.587H43.2697Z" fill="white"/>
</svg>
